<?xml version="1.0" encoding="UTF-8" standalone="no"?>
<!-- Created with Inkscape (http://www.inkscape.org/) -->

<svg
   xmlns:dc="http://purl.org/dc/elements/1.1/"
   xmlns:cc="http://creativecommons.org/ns#"
   xmlns:rdf="http://www.w3.org/1999/02/22-rdf-syntax-ns#"
   xmlns:svg="http://www.w3.org/2000/svg"
   xmlns="http://www.w3.org/2000/svg"
   xmlns:sodipodi="http://sodipodi.sourceforge.net/DTD/sodipodi-0.dtd"
   xmlns:inkscape="http://www.inkscape.org/namespaces/inkscape"
   width="210mm"
   height="297mm"
   viewBox="0 0 210 297"
   version="1.1"
   id="svg8"
   inkscape:version="0.92.4 (5da689c313, 2019-01-14)"
   sodipodi:docname="Foto CV Blanco.svg">
  <defs
     id="defs2" />
  <sodipodi:namedview
     id="base"
     pagecolor="#ffffff"
     bordercolor="#666666"
     borderopacity="1.0"
     inkscape:pageopacity="0.0"
     inkscape:pageshadow="2"
     inkscape:zoom="0.49497475"
     inkscape:cx="-143.05459"
     inkscape:cy="492.50096"
     inkscape:document-units="mm"
     inkscape:current-layer="layer1"
     showgrid="false"
     inkscape:window-width="1920"
     inkscape:window-height="1017"
     inkscape:window-x="1432"
     inkscape:window-y="-8"
     inkscape:window-maximized="1" />
  <metadata
     id="metadata5">
    <rdf:RDF>
      <cc:Work
         rdf:about="">
        <dc:format>image/svg+xml</dc:format>
        <dc:type
           rdf:resource="http://purl.org/dc/dcmitype/StillImage" />
        <dc:title></dc:title>
      </cc:Work>
    </rdf:RDF>
  </metadata>
  <g
     inkscape:label="Capa 1"
     inkscape:groupmode="layer"
     id="layer1">
    <path
       style="fill:#ffffff;fill-opacity:1;stroke-width:0.9390288"
       d="m 81.975254,295.60567 c -11.102707,-2.2767 -22.031172,-10.52789 -36.99819,-27.93426 -19.563795,-22.75234 -28.47721,-40.35072 -30.789647,-60.79003 -0.350727,-3.09991 -0.900032,-5.63532 -1.220659,-5.63425 -0.320627,9.4e-4 -0.444995,-4.54146 -0.276309,-10.09455 0.433153,-14.26112 -0.331086,-19.13802 -3.6543088,-23.31976 -3.0298274,-3.81255 -3.4901601,-5.31061 -1.3834498,-4.50219 0.7549528,0.2897 2.1282819,2.16707 3.0518426,4.17194 0.923587,2.00486 1.941572,3.6561 2.262173,3.66943 1.483875,0.0617 1.815586,-13.13261 0.451855,-17.97338 -0.776029,-2.75474 -1.877353,-10.50192 -2.44737,-17.21598 C 7.3003461,92.743608 8.135012,74.291569 14.318699,61.980136 18.214546,54.223692 30.770294,35.844729 31.913092,36.225665 c 0.592735,0.197587 1.684225,2.844296 2.42551,5.881591 1.345941,5.514703 1.349879,5.51916 2.834666,3.216949 3.114001,-4.828265 11.14632,-12.574696 17.466816,-16.845071 8.881383,-6.000636 12.202596,-7.594679 25.353768,-12.168731 6.197587,-2.155557 15.807473,-6.081289 21.355338,-8.7238443 5.54785,-2.6425564 10.30069,-4.5909412 10.56191,-4.3297427 0.26117,0.261196 0.74334,3.043133 1.07142,6.1820807 l 0.59652,5.7071743 3.48784,-1.230589 c 5.54261,-1.955548 10.37671,-4.6487535 16.68904,-9.2979381 3.22937,-2.3785016 6.06151,-4.32455194 6.29363,-4.32455194 0.23215,0 0.5479,2.64102004 0.70163,5.86893024 l 0.27957,5.8689298 2.81709,-3.9552342 c 1.5494,-2.1753794 3.14447,-3.9712712 3.54459,-3.9908734 1.07355,-0.052586 2.44699,3.9093344 5.35876,15.4583376 l 2.60427,10.329317 1.38504,-3.286602 c 0.76176,-1.80763 1.66369,-4.073674 2.00427,-5.035656 0.50011,-1.412514 0.88261,-1.530505 1.9879,-0.613212 1.32593,1.100444 10.14226,18.705302 12.70425,25.368473 0.69503,1.807632 2.54692,5.109136 4.11531,7.336679 2.41847,3.434877 2.95361,3.79147 3.52295,2.347573 0.36925,-0.936378 0.7075,-3.392759 0.75172,-5.458622 0.15181,-7.093702 1.35577,-6.61132 6.37799,2.55535 6.48417,11.835141 12.95903,28.582629 14.90504,38.552448 1.5165,7.769412 1.51726,8.98037 0.0131,21.12814 -2.22453,17.96791 -7.48797,43.08425 -10.50966,50.15054 -1.88314,4.40381 -2.63998,7.98653 -2.939,13.91289 l -0.40271,7.98174 2.15353,-2.96086 c 2.43591,-3.34909 5.35992,-5.45813 6.27333,-4.52483 0.33703,0.34441 -0.70481,1.74701 -2.31527,3.11691 -4.28333,3.64351 -5.80145,7.33348 -7.40239,17.99242 -3.25085,21.64382 -8.55818,36.40911 -18.34878,51.04724 -8.40811,12.57119 -34.53382,36.12109 -49.32638,44.46316 -4.41322,2.48879 -5.26333,2.61915 -18.24485,2.7983 -8.770922,0.12103 -15.918128,-0.28421 -20.085771,-1.13881 z M 123.0848,266.61182 c 1.71701,-0.71742 4.28137,-2.51332 5.69855,-3.99088 5.7157,-5.95923 10.1897,-19.72954 8.54249,-26.29254 l -0.63048,-2.51198 -2.98631,3.66873 c -10.83494,13.31084 -19.55365,18.93473 -29.46558,19.00633 l -5.46905,0.0394 3.59124,-1.26347 c 6.47155,-2.2768 5.50873,-2.78672 -7.112596,-3.76694 -7.589255,-0.58942 -8.834093,0.0535 -5.164657,2.66694 2.082843,1.48352 2.067714,1.49797 -1.068275,1.01742 -1.749619,-0.26809 -5.023072,-1.56693 -7.274392,-2.88628 -5.331961,-3.12473 -14.664025,-13.35615 -17.653031,-19.35429 l -2.356752,-4.72942 -1.069972,2.71334 c -1.523677,3.86403 -1.237273,15.12079 0.509424,20.02093 3.809846,10.68821 13.916896,16.6789 22.473376,13.32052 1.629553,-0.63961 1.551692,-0.8697 -0.939029,-2.77554 l -2.715904,-2.0781 4.225627,2.0865 c 2.324096,1.1476 4.517744,2.5167 4.874758,3.04249 0.357014,0.52577 3.526234,1.11087 7.042714,1.30023 5.452999,0.29361 7.422249,-0.0772 13.385679,-2.52095 3.84563,-1.57585 7.16814,-2.68909 7.38336,-2.47387 0.46128,0.46125 -5.49493,4.20737 -6.8632,4.31658 -1.64006,0.13095 5.54032,2.60315 7.77717,2.67772 1.17863,0.0394 3.5478,-0.51555 5.26484,-1.23296 z m -5.79399,-30.61443 c 1.69787,-0.005 2.39703,-0.41424 2.08755,-1.22071 -0.33657,-0.8771 -5.58884,-1.53291 -18.98589,-2.37057 -10.186319,-0.63691 -20.062498,-1.38768 -21.947051,-1.66838 -1.884577,-0.28065 -3.686729,-0.0892 -4.004799,0.42538 -1.325282,2.14435 25.304493,6.04904 35.60217,5.2203 2.58233,-0.20789 5.84394,-0.38153 7.24802,-0.38602 z m 48.67512,-6.4145 c 8.02723,-5.09588 13.48077,-14.98721 15.36496,-27.86822 2.18993,-14.97127 4.37318,-46.15732 3.84571,-54.9332 -1.44629,-24.06272 -2.92779,-32.92561 -6.82794,-40.84775 -4.13804,-8.405272 -7.19974,-10.616798 -21.82394,-15.763823 -7.97999,-2.808586 -7.98685,-2.809236 -31.45745,-2.975069 C 104.0422,87.04628 100.41518,86.783696 90.323164,84.679472 80.497197,82.630718 77.852841,82.422828 69.664538,83.055411 c -17.172664,1.326662 -23.738951,2.390506 -26.065081,4.222983 -3.815455,3.005765 -7.862224,8.12936 -10.411112,13.181426 -2.555201,5.06461 -11.852338,39.13099 -13.802987,50.57666 -1.76806,10.37424 -0.709645,42.25515 1.689808,50.90024 3.462511,12.47512 12.970303,21.84514 22.166338,21.84514 3.880353,0 5.880588,-0.70469 11.32784,-3.99088 l 6.615377,-3.99086 14.145237,0.008 14.145237,0.008 -1.131163,-3.29035 c -1.337151,-3.88951 -0.59871,-5.88784 1.04253,-2.82118 1.712892,3.20057 5.037,4.6203 10.904508,4.65732 5.52205,0.0342 10.22124,-2.3564 10.22124,-5.20029 0,-0.73722 0.42256,-1.34039 0.93903,-1.34039 1.86396,0 0.0903,7.23477 -2.10659,8.59248 -1.30939,0.80925 2.94808,1.48077 13.80352,2.17711 11.02917,0.7075 14.60439,1.87706 19.47657,6.3713 8.30598,7.66172 16.11779,9.20917 23.34109,4.62362 z m -35.84248,-51.61541 c -0.5352,-1.40009 -0.83233,-4.34151 -0.6603,-6.5365 0.17216,-2.19498 0.13929,-3.99086 -0.073,-3.99086 -0.21207,0 -2.01112,1.76056 -3.99765,3.91235 -1.98652,2.1518 -3.61188,3.40837 -3.61188,2.79237 0,-1.79929 7.64711,-8.92666 11.73786,-10.9401 5.53398,-2.72378 17.13234,-2.55844 23.60008,0.33645 5.20808,2.33108 9.14653,5.93452 10.16274,9.29834 0.91214,3.01922 0.0412,2.63677 -3.88051,-1.70409 -1.89661,-2.0993 -4.70375,-4.4661 -6.23815,-5.25956 -2.63702,-1.36367 -2.74875,-1.34748 -2.04027,0.29555 1.20717,2.79969 1.65428,7.61299 1.0208,10.98973 l -0.58836,3.1362 -12.22914,0.10789 -12.22915,0.10785 -0.97309,-2.54562 z m 9.96827,-10.52736 c 0,-1.72099 -0.56503,-2.42782 -2.11701,-2.6482 -2.3073,-0.32764 -3.61776,1.68613 -2.68278,4.1226 0.33936,0.88438 1.41296,1.3541 2.68278,1.17378 1.55198,-0.22038 2.11701,-0.9272 2.11701,-2.64818 z m -68.355685,7.20821 c -0.492677,-1.28391 -1.026514,-1.44555 -2.38062,-0.72086 -2.079816,1.11309 -19.924382,-1.53469 -21.086534,-3.12882 -0.980685,-1.34517 -0.01566,-7.59898 1.677547,-10.87366 l 1.356323,-2.62284 -3.284695,1.00809 c -1.806587,0.55446 -4.964383,2.44586 -7.01736,4.20314 -4.264597,3.65033 -5.247917,2.03432 -1.150336,-1.89049 7.774999,-7.44715 24.7326,-7.969 33.816161,-1.04066 3.771112,2.87638 8.680927,9.40773 8.660033,11.52014 -0.0078,0.82632 -1.170238,-0.29044 -2.582328,-2.48171 -2.884669,-4.47637 -3.9645,-4.98511 -4.000626,-1.88482 -0.01304,1.16205 -0.777907,3.79012 -1.698545,5.84017 -1.338247,2.97989 -1.801293,3.39545 -2.30902,2.07232 z m -12.90778,-11.38874 c 1.768138,-2.13047 0.804043,-4.74026 -1.751132,-4.74026 -2.962087,0 -4.640026,2.60646 -2.971894,4.61645 1.53818,1.85338 3.250369,1.89827 4.723026,0.12381 z M 169.1124,140.10835 c -2.7158,-3.00296 -7.90338,-5.31661 -14.74875,-6.57792 -5.6607,-1.04302 -6.62093,-0.96845 -11.48196,0.89175 -11.62163,4.44735 -20.4307,0.63528 -14.74828,-6.38222 3.42961,-4.23542 20.2321,-7.01623 28.50652,-4.71785 4.32739,1.20203 11.62362,7.59124 14.0095,12.26798 3.01625,5.91232 2.11629,8.55785 -1.53703,4.51826 z M 37.268032,133.70807 c 0,-2.41933 6.682883,-9.15629 11.935938,-12.0325 5.102524,-2.79379 6.688647,-3.19658 12.676884,-3.21926 11.249195,-0.0425 23.277654,4.96852 23.277654,9.69754 0,5.67406 -7.128687,7.05038 -15.646431,3.02085 -4.628966,-2.18986 -6.053446,-2.41563 -12.955149,-2.05339 -5.936069,0.31158 -8.963444,0.99857 -12.910911,2.9299 -5.637692,2.75826 -6.377985,2.95057 -6.377985,1.65686 z m 95.683218,97.17524 c -0.22589,-0.22589 -6.52916,-1.59927 -14.0072,-3.05184 -12.37712,-2.40423 -15.23846,-2.62461 -31.907485,-2.45746 -27.088596,0.27164 -28.674042,1.69382 -2.817086,2.527 11.620477,0.37444 25.142521,1.23965 30.048941,1.92266 8.9005,1.23907 19.46123,1.83804 18.68283,1.05964 z"
       id="path826"
       inkscape:connector-curvature="0"
       inkscape:export-xdpi="500.08401"
       inkscape:export-ydpi="500.08401" />
  </g>
</svg>
